<?xml version="1.0" standalone="no"?>
<!DOCTYPE svg PUBLIC "-//W3C//DTD SVG 20010904//EN"
 "http://www.w3.org/TR/2001/REC-SVG-20010904/DTD/svg10.dtd">
<svg version="1.0" xmlns="http://www.w3.org/2000/svg"
 width="16.000000pt" height="16.000000pt" viewBox="0 0 16.000000 16.000000"
 preserveAspectRatio="xMidYMid meet">
<metadata>
Created by potrace 1.11, written by Peter Selinger 2001-2013
</metadata>
<g transform="translate(0.000000,16.000000) scale(0.006154,-0.006154)"
fill="#000000" stroke="none">
<path d="M1145 2185 c-151 -27 -264 -77 -391 -173 -221 -167 -346 -415 -348
-692 -1 -140 7 -200 39 -297 104 -310 353 -533 672 -603 84 -18 272 -21 348
-6 372 78 650 358 719 726 20 104 14 274 -12 377 -38 148 -115 289 -219 399
-56 60 -146 134 -162 134 -6 0 -11 3 -11 8 0 17 -162 88 -258 113 -94 25 -278
31 -377 14z"/>
</g>
</svg>
